<svg width="23" height="21" viewBox="0 0 23 21" xmlns="http://www.w3.org/2000/svg">
<path  fill="current"  stroke="current" stroke-width="1" d="M11.9484 1.03827L14.4926 6.19348C14.7111 6.6362 15.1335 6.94305 15.622 7.01405L21.3111 7.84072C21.7213 7.90032 21.885 8.4043 21.5883 8.69357L17.4716 12.7063C17.118 13.051 16.9567 13.5475 17.0402 14.034L18.012 19.7002C18.082 20.1086 17.6533 20.4201 17.2865 20.2273L12.198 17.5521C11.761 17.3223 11.239 17.3223 10.802 17.5521L5.71349 20.2273C5.34667 20.4201 4.91796 20.1086 4.98801 19.7002L5.95983 14.034C6.04329 13.5475 5.88196 13.051 5.52843 12.7063L1.41175 8.69357C1.11499 8.4043 1.27875 7.90032 1.68886 7.84072L7.37797 7.01405C7.86654 6.94305 8.28889 6.6362 8.50738 6.19348L11.0516 1.03827C11.235 0.666646 11.765 0.666647 11.9484 1.03827Z"/>
</svg>



